# xmcd
#
# Track frame offsets: 
#        150
#        23071
#        41202
#        62353
#        84493
#        104559
#        119982
#        136365
#        156405
#        179780
#        201885
#        225515
#
# Disc length: 3245 seconds
#
# Revision: 0
# Processed by: cddbd v1.5.2PL0 Copyright (c) Steve Scherf et al.
# Submitted via: ExactAudioCopy v1.3
#
DISCID=ae0cab0c
DTITLE=刘嘉佳 - 追梦人
DYEAR=2018
DGENRE=Pop
TTITLE0=追梦人
TTITLE1=一剪梅
TTITLE2=传奇
TTITLE3=女儿情
TTITLE4=异乡人
TTITLE5=月圆花好
TTITLE6=留嫁
TTITLE7=我要你
TTITLE8=花祭
TTITLE9=天之大
TTITLE10=花满楼
TTITLE11=在那遥远的地方
EXTD=
EXTT0=
EXTT1=
EXTT2=
EXTT3=
EXTT4=
EXTT5=
EXTT6=
EXTT7=
EXTT8=
EXTT9=
EXTT10=
EXTT11=
PLAYORDER=
